<mxfile host="app.diagrams.net" agent="Mozilla/5.0 (Windows NT 10.0; Win64; x64) AppleWebKit/537.36 (KHTML, like Gecko) Chrome/129.0.0.0 Safari/537.36" version="24.8.0">
  <diagram name="Page-1" id="w5lIHnZK77a8yhrqPxab">
    <mxGraphModel dx="1498" dy="1097" grid="1" gridSize="10" guides="1" tooltips="1" connect="1" arrows="1" fold="1" page="1" pageScale="1" pageWidth="850" pageHeight="1100" math="0" shadow="0">
      <root>
        <mxCell id="0" />
        <mxCell id="1" parent="0" />
        <mxCell id="3R2I6MUwIysTPf9Kqypu-1" value="" style="strokeWidth=1;shadow=0;dashed=0;align=center;html=1;shape=mxgraph.mockup.containers.browserWindow;rSize=0;strokeColor=#666666;strokeColor2=#008cff;strokeColor3=#c4c4c4;mainText=,;recursiveResize=0;" vertex="1" parent="1">
          <mxGeometry x="40" y="120" width="767.5" height="940" as="geometry" />
        </mxCell>
        <mxCell id="3R2I6MUwIysTPf9Kqypu-2" value="DineScout" style="strokeWidth=1;shadow=0;dashed=0;align=center;html=1;shape=mxgraph.mockup.containers.anchor;fontSize=17;fontColor=#666666;align=left;whiteSpace=wrap;" vertex="1" parent="3R2I6MUwIysTPf9Kqypu-1">
          <mxGeometry x="60" y="12" width="110" height="26" as="geometry" />
        </mxCell>
        <mxCell id="3R2I6MUwIysTPf9Kqypu-3" value="https://www.dinescout.com/user_account" style="strokeWidth=1;shadow=0;dashed=0;align=center;html=1;shape=mxgraph.mockup.containers.anchor;rSize=0;fontSize=17;fontColor=#666666;align=left;" vertex="1" parent="3R2I6MUwIysTPf9Kqypu-1">
          <mxGeometry x="130" y="60" width="250" height="26" as="geometry" />
        </mxCell>
        <mxCell id="3R2I6MUwIysTPf9Kqypu-4" value="" style="strokeWidth=1;shadow=0;dashed=0;align=center;html=1;shape=mxgraph.mockup.forms.rrect;rSize=0;strokeColor=#999999;fillColor=#ffffff;" vertex="1" parent="3R2I6MUwIysTPf9Kqypu-1">
          <mxGeometry x="180" y="110" width="420" height="830" as="geometry" />
        </mxCell>
        <mxCell id="3R2I6MUwIysTPf9Kqypu-5" value="" style="rounded=0;whiteSpace=wrap;html=1;" vertex="1" parent="3R2I6MUwIysTPf9Kqypu-4">
          <mxGeometry x="50" y="220" width="320" height="400" as="geometry" />
        </mxCell>
        <mxCell id="3R2I6MUwIysTPf9Kqypu-6" value="" style="ellipse;whiteSpace=wrap;html=1;aspect=fixed;" vertex="1" parent="3R2I6MUwIysTPf9Kqypu-4">
          <mxGeometry x="163.98000000000002" y="74.30303030303031" width="80" height="80" as="geometry" />
        </mxCell>
        <mxCell id="3R2I6MUwIysTPf9Kqypu-7" value="Logo" style="text;strokeColor=none;fillColor=none;html=1;fontSize=24;fontStyle=1;verticalAlign=middle;align=center;" vertex="1" parent="3R2I6MUwIysTPf9Kqypu-4">
          <mxGeometry x="100" y="91.61" width="210" height="45.39" as="geometry" />
        </mxCell>
        <mxCell id="3R2I6MUwIysTPf9Kqypu-8" value="" style="strokeWidth=1;shadow=0;dashed=0;align=center;html=1;shape=mxgraph.mockup.forms.anchor;fontSize=12;fontColor=#666666;align=left;resizeWidth=1;spacingLeft=0;" vertex="1" parent="3R2I6MUwIysTPf9Kqypu-4">
          <mxGeometry x="164.5" y="687" width="115" height="20" as="geometry" />
        </mxCell>
        <mxCell id="3R2I6MUwIysTPf9Kqypu-9" value="" style="strokeWidth=1;shadow=0;dashed=0;align=center;html=1;shape=mxgraph.mockup.forms.anchor;fontSize=12;fontColor=#666666;align=left;resizeWidth=1;spacingLeft=0;" vertex="1" parent="3R2I6MUwIysTPf9Kqypu-4">
          <mxGeometry x="159" y="472" width="210" height="130" as="geometry" />
        </mxCell>
        <mxCell id="3R2I6MUwIysTPf9Kqypu-10" value="" style="rounded=0;whiteSpace=wrap;html=1;" vertex="1" parent="3R2I6MUwIysTPf9Kqypu-4">
          <mxGeometry x="50" y="644" width="320" height="73" as="geometry" />
        </mxCell>
        <mxCell id="3R2I6MUwIysTPf9Kqypu-11" value="&lt;div&gt;Food Items&lt;/div&gt;&lt;div&gt;&lt;br&gt;&lt;/div&gt;&lt;div&gt;[Count]&lt;/div&gt;" style="strokeWidth=1;shadow=0;dashed=0;align=center;html=1;shape=mxgraph.mockup.forms.anchor;fontSize=12;fontColor=#666666;align=left;resizeWidth=1;spacingLeft=0;" vertex="1" parent="3R2I6MUwIysTPf9Kqypu-4">
          <mxGeometry x="69.5" y="615" width="210" height="130" as="geometry" />
        </mxCell>
        <mxCell id="3R2I6MUwIysTPf9Kqypu-12" value="View List" style="strokeWidth=1;shadow=0;dashed=0;align=center;html=1;shape=mxgraph.mockup.forms.rrect;rSize=5;strokeColor=none;fontColor=#ffffff;fillColor=#66bbff;fontSize=16;fontStyle=1;" vertex="1" parent="3R2I6MUwIysTPf9Kqypu-4">
          <mxGeometry x="270" y="655" width="90" height="30" as="geometry" />
        </mxCell>
        <mxCell id="3R2I6MUwIysTPf9Kqypu-13" value="" style="rounded=0;whiteSpace=wrap;html=1;" vertex="1" parent="3R2I6MUwIysTPf9Kqypu-4">
          <mxGeometry x="50" y="744" width="320" height="73" as="geometry" />
        </mxCell>
        <mxCell id="3R2I6MUwIysTPf9Kqypu-14" value="&lt;div&gt;Current Membership&lt;/div&gt;&lt;div&gt;&lt;br&gt;&lt;/div&gt;&lt;div&gt;[True or False] [Expiration Date]&lt;/div&gt;" style="strokeWidth=1;shadow=0;dashed=0;align=center;html=1;shape=mxgraph.mockup.forms.anchor;fontSize=12;fontColor=#666666;align=left;resizeWidth=1;spacingLeft=0;" vertex="1" parent="3R2I6MUwIysTPf9Kqypu-4">
          <mxGeometry x="69.5" y="713" width="210" height="130" as="geometry" />
        </mxCell>
        <mxCell id="3R2I6MUwIysTPf9Kqypu-15" value="Pay Fees" style="strokeWidth=1;shadow=0;dashed=0;align=center;html=1;shape=mxgraph.mockup.forms.rrect;rSize=5;strokeColor=none;fontColor=#ffffff;fillColor=#66bbff;fontSize=16;fontStyle=1;" vertex="1" parent="3R2I6MUwIysTPf9Kqypu-4">
          <mxGeometry x="270" y="755" width="90" height="30" as="geometry" />
        </mxCell>
        <mxCell id="3R2I6MUwIysTPf9Kqypu-16" value="" style="rounded=0;whiteSpace=wrap;html=1;" vertex="1" parent="3R2I6MUwIysTPf9Kqypu-4">
          <mxGeometry x="73" y="411" width="270" height="20" as="geometry" />
        </mxCell>
        <mxCell id="3R2I6MUwIysTPf9Kqypu-17" value="" style="rounded=0;whiteSpace=wrap;html=1;" vertex="1" parent="3R2I6MUwIysTPf9Kqypu-4">
          <mxGeometry x="73" y="468" width="270" height="20" as="geometry" />
        </mxCell>
        <mxCell id="3R2I6MUwIysTPf9Kqypu-18" value="User Account" style="strokeWidth=1;shadow=0;dashed=0;align=center;html=1;shape=mxgraph.mockup.forms.rrect;rSize=5;strokeColor=none;fontColor=#ffffff;fillColor=#66bbff;fontSize=16;fontStyle=1;" vertex="1" parent="3R2I6MUwIysTPf9Kqypu-4">
          <mxGeometry x="290" y="10" width="120" height="30" as="geometry" />
        </mxCell>
        <mxCell id="3R2I6MUwIysTPf9Kqypu-19" value="Restaurant User [User Account Page]" style="text;strokeColor=none;fillColor=none;html=1;fontSize=24;fontStyle=1;verticalAlign=middle;align=center;" vertex="1" parent="1">
          <mxGeometry x="375" y="40" width="100" height="60" as="geometry" />
        </mxCell>
        <mxCell id="3R2I6MUwIysTPf9Kqypu-20" value="" style="rounded=0;whiteSpace=wrap;html=1;" vertex="1" parent="1">
          <mxGeometry x="293" y="525" width="270" height="20" as="geometry" />
        </mxCell>
        <mxCell id="3R2I6MUwIysTPf9Kqypu-21" value="Rest-Update" style="strokeWidth=1;shadow=0;dashed=0;align=center;html=1;shape=mxgraph.mockup.forms.rrect;rSize=5;strokeColor=none;fontColor=#ffffff;fillColor=#66bbff;fontSize=16;fontStyle=1;" vertex="1" parent="1">
          <mxGeometry x="457.18" y="458.3" width="126.82" height="30" as="geometry" />
        </mxCell>
        <mxCell id="3R2I6MUwIysTPf9Kqypu-22" value="&lt;span style=&quot;font-size: 16px;&quot;&gt;User Account&lt;/span&gt;" style="strokeWidth=1;shadow=0;dashed=0;align=center;html=1;shape=mxgraph.mockup.forms.anchor;fontSize=12;fontColor=#666666;align=left;resizeWidth=1;spacingLeft=0;" vertex="1" parent="1">
          <mxGeometry x="375" y="357" width="210" height="130" as="geometry" />
        </mxCell>
        <mxCell id="3R2I6MUwIysTPf9Kqypu-23" value="" style="rounded=0;whiteSpace=wrap;html=1;" vertex="1" parent="1">
          <mxGeometry x="293" y="583" width="270" height="20" as="geometry" />
        </mxCell>
        <mxCell id="3R2I6MUwIysTPf9Kqypu-27" value="" style="rounded=0;whiteSpace=wrap;html=1;" vertex="1" parent="1">
          <mxGeometry x="293" y="754" width="270" height="20" as="geometry" />
        </mxCell>
        <mxCell id="3R2I6MUwIysTPf9Kqypu-28" value="" style="rounded=0;whiteSpace=wrap;html=1;" vertex="1" parent="1">
          <mxGeometry x="288.75" y="810" width="270" height="20" as="geometry" />
        </mxCell>
        <mxCell id="3R2I6MUwIysTPf9Kqypu-24" value="Restaurant Name&lt;div&gt;&lt;br&gt;&lt;/div&gt;&lt;div&gt;Name here&lt;br&gt;&lt;div&gt;&lt;br&gt;&lt;/div&gt;&lt;div&gt;Address&lt;/div&gt;&lt;div&gt;&lt;br&gt;&lt;/div&gt;&lt;div&gt;Location here&lt;/div&gt;&lt;div&gt;&lt;br&gt;&lt;/div&gt;&lt;div&gt;Email (login username)&lt;/div&gt;&lt;div&gt;&lt;br&gt;&lt;/div&gt;&lt;div&gt;Email here&lt;/div&gt;&lt;div&gt;&lt;br&gt;&lt;/div&gt;&lt;div&gt;Password&lt;/div&gt;&lt;/div&gt;&lt;div&gt;&lt;br&gt;&lt;/div&gt;&lt;div&gt;New password here&lt;/div&gt;&lt;div&gt;&lt;br&gt;&lt;/div&gt;&lt;div&gt;Restaurant Type&lt;/div&gt;&lt;div&gt;&lt;br&gt;&lt;/div&gt;&lt;div&gt;Type List Here&lt;/div&gt;&lt;div&gt;&lt;br&gt;&lt;/div&gt;&lt;div&gt;Hours&lt;/div&gt;&lt;div&gt;&lt;br&gt;&lt;/div&gt;&lt;div&gt;Hours Listed Here&lt;/div&gt;" style="strokeWidth=1;shadow=0;dashed=0;align=center;html=1;shape=mxgraph.mockup.forms.anchor;fontSize=12;fontColor=#666666;align=left;resizeWidth=1;spacingLeft=0;" vertex="1" parent="1">
          <mxGeometry x="293" y="599" width="210" height="130" as="geometry" />
        </mxCell>
      </root>
    </mxGraphModel>
  </diagram>
</mxfile>
